<?xml version="1.0" encoding="utf-8"?>
<!-- Generator: Adobe Illustrator 24.0.1, SVG Export Plug-In . SVG Version: 6.00 Build 0)  -->
<svg version="1.1" id="Слой_1" xmlns="http://www.w3.org/2000/svg" xmlns:xlink="http://www.w3.org/1999/xlink" x="0px" y="0px"
	 viewBox="0 0 512 512" style="enable-background:new 0 0 512 512;" xml:space="preserve">
<path style="stroke:#1d2f77;fill:#1d2f77;stroke-width:3;stroke-miterlimit:10;" d="M256,83.7C161,83.7,83.7,161,83.7,256S161,428.3,256,428.3S428.3,351,428.3,256S351,83.7,256,83.7z M256,398.8
	c-78.7,0-142.8-64-142.8-142.8s64-142.8,142.8-142.8s142.8,64,142.8,142.8S334.7,398.8,256,398.8z"/>
<path style="stroke:#1d2f77;fill:#1d2f77;stroke-width:3;stroke-miterlimit:10;" d="M256,54.2c8.2,0,14.8-6.6,14.8-14.8V14.8C270.8,6.6,264.2,0,256,0s-14.8,6.6-14.8,14.8v24.6
	C241.2,47.5,247.8,54.2,256,54.2z"/>
<path style="stroke:#1d2f77;fill:#1d2f77;stroke-width:3;stroke-miterlimit:10;" d="M256,457.8c-8.2,0-14.8,6.6-14.8,14.8v24.6c0,8.2,6.6,14.8,14.8,14.8s14.8-6.6,14.8-14.8v-24.6
	C270.8,464.5,264.2,457.8,256,457.8z"/>
<path style="stroke:#1d2f77;fill:#1d2f77;stroke-width:3;stroke-miterlimit:10;" d="M159.5,61.5c3.1,7.4,11.9,11.1,19.3,8c7.5-3.1,11.1-11.8,8-19.3l-9.4-22.7c-3.1-7.5-11.8-11.1-19.3-8
	c-7.5,3.1-11.1,11.8-8,19.3L159.5,61.5z"/>
<path style="stroke:#1d2f77;fill:#1d2f77;stroke-width:3;stroke-miterlimit:10;" d="M27.5,177.3l22.7,9.4c7.4,3.1,16.2-0.6,19.3-8c3.1-7.5-0.5-16.2-8-19.3L38.8,150c-7.5-3.1-16.2,0.5-19.3,8
	C16.4,165.6,19.9,174.2,27.5,177.3z"/>
<path style="stroke:#1d2f77;fill:#1d2f77;stroke-width:3;stroke-miterlimit:10;" d="M54.2,256c0-8.2-6.6-14.8-14.8-14.8H14.8C6.6,241.2,0,247.8,0,256s6.6,14.8,14.8,14.8h24.6
	C47.5,270.8,54.2,264.2,54.2,256z"/>
<path style="stroke:#1d2f77;fill:#1d2f77;stroke-width:3;stroke-miterlimit:10;" d="M69.5,333.2c-3.1-7.5-11.8-11.1-19.3-8l-22.7,9.4c-7.5,3.1-11.1,11.8-8,19.3c3.1,7.4,11.9,11.1,19.3,8l22.7-9.4
	C69.1,349.4,72.6,340.8,69.5,333.2z"/>
<path style="stroke:#1d2f77;fill:#1d2f77;stroke-width:3;stroke-miterlimit:10;" d="M178.8,442.5c-7.5-3.1-16.2,0.5-19.3,8l-9.4,22.7c-3.1,7.5,0.5,16.2,8,19.3c7.4,3.1,16.2-0.6,19.3-8l9.4-22.7
	C189.9,454.2,186.3,445.6,178.8,442.5z"/>
<path style="stroke:#1d2f77;fill:#1d2f77;stroke-width:3;stroke-miterlimit:10;" d="M92.4,113.3c5.7,5.7,15.2,5.7,20.9,0c5.8-5.8,5.8-15.1,0-20.9L69.5,48.6c-5.8-5.8-15.1-5.8-20.9,0
	c-5.8,5.8-5.8,15.1,0,20.9L92.4,113.3z"/>
<path style="stroke:#1d2f77;fill:#1d2f77;stroke-width:3;stroke-miterlimit:10;" d="M92.4,398.7l-43.8,43.8c-5.8,5.8-5.8,15.1,0,20.9c5.7,5.7,15.2,5.7,20.9,0l43.8-43.8c5.8-5.8,5.8-15.1,0-20.9
	C107.5,393,98.2,393,92.4,398.7z"/>
<path style="stroke:#1d2f77;fill:#1d2f77;stroke-width:3;stroke-miterlimit:10;" d="M333.2,69.5c7.4,3.1,16.2-0.6,19.3-8l9.4-22.7c3.1-7.5-0.5-16.2-8-19.3c-7.5-3.1-16.2,0.5-19.3,8l-9.4,22.7
	C322.1,57.8,325.7,66.4,333.2,69.5z"/>
<path style="stroke:#1d2f77;fill:#1d2f77;stroke-width:3;stroke-miterlimit:10;" d="M442.5,178.8c3.1,7.4,11.9,11.1,19.3,8l22.7-9.4c7.5-3.1,11.1-11.8,8-19.3c-3.1-7.5-11.8-11.1-19.3-8l-22.7,9.4
	C442.9,162.6,439.4,171.2,442.5,178.8z"/>
<path style="stroke:#1d2f77;fill:#1d2f77;stroke-width:3;stroke-miterlimit:10;" d="M497.2,241.2h-24.6c-8.2,0-14.8,6.6-14.8,14.8s6.6,14.8,14.8,14.8h24.6c8.2,0,14.8-6.6,14.8-14.8
	S505.4,241.2,497.2,241.2z"/>
<path style="stroke:#1d2f77;fill:#1d2f77;stroke-width:3;stroke-miterlimit:10;" d="M484.5,334.7l-22.7-9.4c-7.5-3.1-16.2,0.5-19.3,8c-3.1,7.5,0.5,16.2,8,19.3l22.7,9.4c7.4,3.1,16.2-0.6,19.3-8
	C495.6,346.4,492.1,337.8,484.5,334.7z"/>
<path style="stroke:#1d2f77;fill:#1d2f77;stroke-width:3;stroke-miterlimit:10;" d="M352.5,450.5c-3.1-7.5-11.8-11.1-19.3-8s-11.1,11.8-8,19.3l9.4,22.7c3.1,7.4,11.9,11.1,19.3,8
	c7.5-3.1,11.1-11.8,8-19.3L352.5,450.5z"/>
<path style="stroke:#1d2f77;fill:#1d2f77;stroke-width:3;stroke-miterlimit:10;" d="M419.6,113.3l43.8-43.8c5.8-5.8,5.8-15.1,0-20.9c-5.8-5.8-15.1-5.8-20.9,0l-43.8,43.8c-5.8,5.8-5.8,15.1,0,20.9
	C404.4,119,413.9,119,419.6,113.3z"/>
<path style="stroke:#1d2f77;fill:#1d2f77;stroke-width:3;stroke-miterlimit:10;" d="M419.6,398.7c-5.8-5.8-15.1-5.8-20.9,0c-5.8,5.8-5.8,15.1,0,20.9l43.8,43.8c5.7,5.7,15.2,5.7,20.9,0
	c5.8-5.8,5.8-15.1,0-20.9L419.6,398.7z"/>
<path style="stroke:#1d2f77;fill:#1d2f77;stroke-width:3;stroke-miterlimit:10;" d="M285.5,241.2h-35.2l18.9-37.7c3.6-7.3,0.7-16.2-6.6-19.8c-7.3-3.6-16.2-0.7-19.8,6.6l-29.5,59.1
	c-2.3,4.6-2,10,0.6,14.4c2.7,4.4,7.4,7,12.6,7h35.2l-18.9,37.7c-3.6,7.3-0.7,16.2,6.6,19.8c7.2,3.6,16.2,0.6,19.8-6.6l29.5-59.1
	c2.3-4.6,2-10-0.6-14.4C295.4,243.9,290.7,241.2,285.5,241.2z"/>
</svg>
