<?xml version="1.0" encoding="UTF-8"?>
<svg xmlns="http://www.w3.org/2000/svg">
    <defs>
        <symbol viewBox="0 0 485 485" id="flat">
<g>
	<path d="M156.1,285.5h20c2.8,0,5,2.2,5,5v54.7c0,2.8-2.2,5-5,5h-20c-2.8,0-5-2.2-5-5v-54.7C151.1,287.7,153.3,285.5,156.1,285.5z"
		/>
	<path d="M156.1,180.2h20c2.8,0,5,2.2,5,5V240c0,2.8-2.2,5-5,5h-20c-2.8,0-5-2.2-5-5v-54.7C151.1,182.5,153.3,180.2,156.1,180.2z"/>
	<path d="M235.1,285.5h20c2.8,0,5,2.2,5,5v54.7c0,2.8-2.2,5-5,5h-20c-2.8,0-5-2.2-5-5v-54.7C230.1,287.7,232.3,285.5,235.1,285.5z"
		/>
	<path d="M235.1,180.2h20c2.8,0,5,2.2,5,5V240c0,2.8-2.2,5-5,5h-20c-2.8,0-5-2.2-5-5v-54.7C230.1,182.5,232.3,180.2,235.1,180.2z"/>
	<path d="M72.1,16v455c0,8.3,6.7,15,15,15h310.8c8.3,0,15-6.7,15-15V16c0-8.3-6.7-15-15-15H87.1C78.8,1,72.1,7.7,72.1,16z M385.9,28
		v80.7h-46.8V81c0-2.8-2.2-5-5-5h-20c-2.8,0-5,2.2-5,5v27.7h-49V81c0-2.8-2.2-5-5-5h-20c-2.8,0-5,2.2-5,5v27.7h-49V81
		c0-2.8-2.2-5-5-5h-20c-2.8,0-5,2.2-5,5v27.7h-52V28H385.9z M299.6,459v-62.3c0-2.8-2.2-5-5-5h-20c-2.8,0-5,2.2-5,5V459h-49v-62.3
		c0-2.8-2.2-5-5-5h-20c-2.8,0-5,2.2-5,5V458H99.1V135.7h286.8V459H299.6z"/>
	<path d="M314.1,285.5h20c2.8,0,5,2.2,5,5v54.7c0,2.8-2.2,5-5,5h-20c-2.8,0-5-2.2-5-5v-54.7C309.1,287.7,311.3,285.5,314.1,285.5z"
		/>
	<path d="M314.1,180.2h20c2.8,0,5,2.2,5,5V240c0,2.8-2.2,5-5,5h-20c-2.8,0-5-2.2-5-5v-54.7C309.1,182.5,311.3,180.2,314.1,180.2z"/>
</g>
        </symbol>
    </defs>


    <defs>
        <symbol viewBox="0 0 512 512" id="house-en">
<g>
			<path style="stroke-width:5;stroke-miterlimit:10;" d="M508.1,313.8l-62.2-115.5c10.4-9.2,18.7-20.6,24.1-33.4L495,173c2.9,1,6.1,0.3,8.4-1.7
				c2.3-2,3.3-5.2,2.6-8.1c-0.6-3-2.8-5.4-5.8-6.3l-24.8-8.1c3.2-13.6,3.2-27.8,0-41.5l24.8-8c2.9-0.9,5.1-3.3,5.8-6.3
				s-0.4-6.1-2.6-8.1c-2.3-2-5.5-2.7-8.4-1.7l-24.7,8c-5.6-12.8-13.9-24.3-24.5-33.5l15.4-21.1c1.8-2.5,2.1-5.7,0.9-8.5
				c-1.2-2.8-3.9-4.7-6.9-5s-6,1-7.8,3.5L432,47.5c-12-7.2-25.5-11.6-39.4-12.9v-26c0-4.7-3.8-8.5-8.5-8.5s-8.5,3.8-8.5,8.5v26
				c-13.9,1.3-27.4,5.7-39.4,12.9l-15.3-21.1c-2.8-3.8-8.1-4.7-11.9-1.9s-4.7,8.1-1.9,11.9l15.4,21.1c-10.5,9.2-18.9,20.7-24.5,33.5
				L273,83c-2.9-1-6.1-0.3-8.4,1.7s-3.3,5.2-2.6,8.2s2.9,5.4,5.8,6.3l24.8,8c-1.6,6.8-2.4,13.8-2.4,20.8H136.1
				c-7.7,0-14.9,3.4-19.8,9.3L3.9,313.8c-0.4,0.5-0.7,1-1,1.5c-1.8,1.6-2.8,3.9-2.9,6.3c0,0.3,0.1,0.6,0.2,0.9
				c-0.1,0.7-0.2,1.4-0.2,2.1v161.7C0,500.5,11.5,512,25.6,512h460.8c14.1,0,25.6-11.5,25.6-25.6V324.7
				C512,320.7,510.6,316.9,508.1,313.8z M384,51.2c31.9,0,60.4,19.6,71.8,49.4c11.4,29.8,3.1,63.4-20.7,84.6l-44.5-54.1
				c-0.1-0.1-0.2-0.1-0.3-0.2c-1.6-1.8-3.9-2.9-6.3-2.9h-76.8C307.2,85.6,341.6,51.2,384,51.2z M256,494.9H25.6
				c-4.7,0-8.5-3.8-8.5-8.5V330.1H256V494.9z M26.6,313.1l102.9-164.9c1.6-2,4-3.1,6.6-3.1h229.9l-105.4,168H26.6z M409.6,494.9
				h-51.2V384c0-4.7,3.8-8.5,8.5-8.5h34.1c4.7,0,8.5,3.8,8.5,8.5L409.6,494.9L409.6,494.9z M494.9,486.4c0,4.7-3.8,8.5-8.5,8.5
				h-59.7V384c0-14.1-11.5-25.6-25.6-25.6h-34.1c-14.1,0-25.6,11.5-25.6,25.6v110.9h-68.3V324.7L384,150l110.9,174.7L494.9,486.4
				L494.9,486.4z"/>
			<path style="stroke-width:2;stroke-miterlimit:10;" d="M317.9,178.3c-1.4-3.1-4.4-5-7.8-5L140,173.4c-2.4,0-4.8,1-6.4,2.9L108,216l-0.1,0.1l-34.4,53.7
				c-2.2,2.5-2.8,6.1-1.4,9.2c1.4,3.1,4.4,5,7.8,5h170.7c2.4,0,4.8-5,6.4-6.9l59.6-89.7C318.7,185,319.3,181.4,317.9,178.3z
				 M233.3,189.2h19.8L231,220.3h-19.8L233.3,189.2z M190.6,189.2h19.8l-22.2,31.1h-19.8L190.6,189.2z M147,189.2h19.8l-22.2,31.1
				h-19.8L147,189.2z M114.7,266.9H94.9l20.8-29.6h19.8L114.7,266.9z M157.4,266.9h-19.8l20.8-29.6h19.8L157.4,266.9z M200,266.9
				h-19.8l20.8-29.6h19.8L200,266.9z M242.7,266.9h-19.8l20.8-29.6h19.8L242.7,266.9z M272.6,220.3h-19.8l22.2-31.1h19.8
				L272.6,220.3z"/>
</g>
        </symbol>
    </defs>

    <defs>
        <symbol viewBox="0 0 277.1 277.1" id="house">
<g>
	<path d="M266.3,134.1L144.9,12.6c-3.5-3.5-9.2-3.5-12.7,0L91,53.8v-6.2c0-5-4-7-9-7H54.9c-5,0-9,4-9,9v49.3l-35.2,35.2
		c-3.5,3.5-4.5,8.2-1,11.7s8.2,0.5,11.7-3L138.6,25.7l116.1,117.1c1.8,1.8,4.6,3.2,6.9,3.5c2.2,0.2,3,1.2,4.7-0.5
		C269.8,142.2,269.9,137.6,266.3,134.1z M59.9,53.6l16.9,0V68L60.9,83.9V53.6H59.9z"/>
	<path d="M144.9,47.1c-3.5-3.5-9.2-3.5-12.7,0L32.1,147.2c-1.7,1.7-2.6,4-2.6,6.4v112.6c0,5,4,9,9,9h73.4c5,0,9-4,9-6v-56.8h35.5
		v56.8c0,2,4,6,9,6h73.4c5,0,9-4,9-9V153.5c0-2.4-0.9-4.7-2.6-6.4L144.9,47.1z M232.7,262.1h-60.4v-57.8c0-5-4-9-9-9h-49.5
		c-5,0-9,4-9,12v54.8H44.4V157.3l94.1-94.1l94.1,94.1V262.1z"/>
</g>
        </symbol>
    </defs>

    <defs>
        <symbol viewBox="0 0 512 512" id="sol-panel">
<g>
<path d="M508.8,284.1L417.1,103c-5-9.8-14.9-16-26-16H120.9c-11,0-21,6.1-26,16L3.2,284.1c-4.6,9.1-4.2,19.7,1.2,28.3
	c5.3,8.7,14.6,13.9,24.8,13.9h81.7V397h-29c-8.3,0-15,4.7-15,13s6.7,13,15,13h348.3c8.3,0,15-4.7,15-13s-6.7-13-15-13h-26.9v-70.7
	h79.6c10.2,0,19.5-5.2,24.8-13.9C513,303.8,513.4,293.2,508.8,284.1z M431.4,193.6H270.1V114h123.5L431.4,193.6z M118.4,114h125.6
	v79.6H80.6L118.4,114z M65.4,219.6h178.6v79.6H27.6L65.4,219.6z M376.3,397H137.9v-70.7h238.4V397z M270.1,299.3v-79.6h176.5
	l37.8,79.6H270.1z"/>
</g>
        </symbol>
    </defs>

    <defs>
        <symbol viewBox="0 0 277.1 277.1" id="house1">
<g>
	<path style="fill:none;stroke-width:11;stroke-miterlimit:10;" d="M50.6,203.4L50.6,203.4c9.8,0,18.5,7,21.1,15.9h0.1l0.6-165.7c0-11.4-9.9-21.3-21.3-21.3h0
		c-11.4,0-20,9.9-20,21.3l-0.6,165.7h0.3C33,210.3,40.8,203.4,50.6,203.4z"/>
	<path style="fill:none;stroke-width:11;stroke-miterlimit:10;" d="M134.6,203.4L134.6,203.4c9.8,0,18.5,7,21.1,15.9h0.1l0.6-165.7c0-11.4-9.9-21.3-21.3-21.3h0
		c-11.4,0-20,9.9-20,21.3l-0.6,165.7h0.3C117,210.3,124.8,203.4,134.6,203.4z"/>
	<path style="fill:none;stroke-width:11;stroke-miterlimit:10;" d="M218.6,203.4L218.6,203.4c9.8,0,18.5,7,21.1,15.9h0.1l0.6-165.7c0-11.4-9.9-21.3-21.3-21.3h0
		c-11.4,0-20,9.9-20,21.3l-0.6,165.7h0.3C201,210.3,208.8,203.4,218.6,203.4z"/>
	<path style="fill:none;stroke-width:11;stroke-miterlimit:10;" d="M94.2,72.3L94.2,72.3c-9.8,0-18.5-7-21.1-15.9H73L72.4,222c0,11.4,9.9,21.3,21.3,21.3h0c11.4,0,20-9.9,20-21.3
		l0.6-165.7h-0.3C111.8,65.3,104,72.3,94.2,72.3z"/>
	<path style="fill:none;stroke-width:11;stroke-miterlimit:10;" d="M178.2,72.3L178.2,72.3c-9.8,0-18.5-7-21.1-15.9H157L156.4,222c0,11.4,9.9,21.3,21.3,21.3h0
		c11.4,0,20-9.9,20-21.3l0.6-165.7h-0.3C195.8,65.3,188,72.3,178.2,72.3z"/>
</g>
        </symbol>
    </defs>


    <defs>
        <symbol viewBox="0 0 277.1 277.1" id="tg">
<g>
	<path style="fill:none;stroke-width:11;stroke-miterlimit:10;" d="M96.6,105.7c0,0-4.3-3.4-6.2-7.3c-3.3-6.6-7.6-14.2-17.4-14.2c-7.9,0-14.1,11.3-20.4,14.1
		c-4.9,2.2-24.5,2.6-34.6,3.1c-2.8,0.1-5.1,1.5-5.1,4.3V43.4c0-2.8,2.3-5.2,5.1-5.3c10.1-0.5,29.7-0.9,34.6-3.1
		C59,32.2,65.1,21,73,21c9.7,0,14,7.6,17.4,14.2c1.9,3.8,6.2,7.3,6.2,7.3V105.7z"/>
	<path style="fill:none;stroke-width:11;stroke-miterlimit:10;" d="M180.4,105.7c0,0-4.3-3.4-6.2-7.3c-3.3-6.6-7.6-14.2-17.4-14.2c-7.9,0-14.1,11.3-20.4,14.1
		c-4.9,2.2-24.5,2.6-34.6,3.1c-2.8,0.1-5.1,1.5-5.1,4.3V43.4c0-2.8,2.3-5.2,5.1-5.3c10.1-0.5,29.7-0.9,34.6-3.1
		c6.4-2.8,12.5-14.1,20.4-14.1c9.7,0,14,7.6,17.4,14.2c1.9,3.8,6.2,7.3,6.2,7.3V105.7z"/>
	<path style="fill:none;stroke-width:11;stroke-miterlimit:10;" d="M264.2,105.7c0,0-4.3-3.4-6.2-7.3c-3.3-6.6-7.6-14.2-17.4-14.2c-7.9,0-14.1,11.3-20.4,14.1
		c-4.9,2.2-24.5,2.6-34.6,3.1c-2.8,0.1-5.1,1.5-5.1,4.3V43.4c0-2.8,2.3-5.2,5.1-5.3c10.1-0.5,29.7-0.9,34.6-3.1
		c6.4-2.8,12.5-14.1,20.4-14.1c9.7,0,14,7.6,17.4,14.2c1.9,3.8,6.2,7.3,6.2,7.3V105.7z"/>
	<path style="fill:none;stroke-width:11;stroke-miterlimit:10;" d="M96.6,168.5c0,0-4.3-3.4-6.2-7.3c-3.3-6.6-7.6-14.2-17.4-14.2c-7.9,0-14.1,11.3-20.4,14.1
		c-4.9,2.2-24.5,2.6-34.6,3.1c-2.8,0.1-5.1,1.5-5.1,4.3v-62.3c0-2.8,2.3-5.2,5.1-5.3c10.1-0.5,29.7-0.9,34.6-3.1
		C59,95,65.1,83.8,73,83.8c9.7,0,14,7.6,17.4,14.2c1.9,3.8,6.2,7.3,6.2,7.3V168.5z"/>
	<path style="fill:none;stroke-width:11;stroke-miterlimit:10;" d="M180.4,168.5c0,0-4.3-3.4-6.2-7.3c-3.3-6.6-7.6-14.2-17.4-14.2c-7.9,0-14.1,11.3-20.4,14.1
		c-4.9,2.2-24.5,2.6-34.6,3.1c-2.8,0.1-5.1,1.5-5.1,4.3v-62.3c0-2.8,2.3-5.2,5.1-5.3c10.1-0.5,29.7-0.9,34.6-3.1
		c6.4-2.8,12.5-14.1,20.4-14.1c9.7,0,14,7.6,17.4,14.2c1.9,3.8,6.2,7.3,6.2,7.3V168.5z"/>
	<path style="fill:none;stroke-width:11;stroke-miterlimit:10;" d="M264.2,168.5c0,0-4.3-3.4-6.2-7.3c-3.3-6.6-7.6-14.2-17.4-14.2c-7.9,0-14.1,11.3-20.4,14.1
		c-4.9,2.2-24.5,2.6-34.6,3.1c-2.8,0.1-5.1,1.5-5.1,4.3v-62.3c0-2.8,2.3-5.2,5.1-5.3c10.1-0.5,29.7-0.9,34.6-3.1
		c6.4-2.8,12.5-14.1,20.4-14.1c9.7,0,14,7.6,17.4,14.2c1.9,3.8,6.2,7.3,6.2,7.3V168.5z"/>
	<path style="fill:none;stroke-width:11;stroke-miterlimit:10;" d="M96.6,230.3c0,0-4.3-3.4-6.2-7.3c-3.3-6.6-7.6-14.2-17.4-14.2c-7.9,0-14.1,11.3-20.4,14.1
		c-4.9,2.2-24.5,2.6-34.6,3.1c-2.8,0.1-5.1,1.5-5.1,4.3V168c0-2.8,2.3-5.2,5.1-5.3c10.1-0.5,29.7-0.9,34.6-3.1
		c6.4-2.8,12.5-14.1,20.4-14.1c9.7,0,14,7.6,17.4,14.2c1.9,3.8,6.2,7.3,6.2,7.3V230.3z"/>
	<path style="fill:none;stroke-width:11;stroke-miterlimit:10;" d="M180.4,230.3c0,0-4.3-3.4-6.2-7.3c-3.3-6.6-7.6-14.2-17.4-14.2c-7.9,0-14.1,11.3-20.4,14.1
		c-4.9,2.2-24.5,2.6-34.6,3.1c-2.8,0.1-5.1,1.5-5.1,4.3V168c0-2.8,2.3-5.2,5.1-5.3c10.1-0.5,29.7-0.9,34.6-3.1
		c6.4-2.8,12.5-14.1,20.4-14.1c9.7,0,14,7.6,17.4,14.2c1.9,3.8,6.2,7.3,6.2,7.3V230.3z"/>
	<path style="fill:none;stroke-width:11;stroke-miterlimit:10;" d="M264.2,230.3c0,0-4.3-3.4-6.2-7.3c-3.3-6.6-7.6-14.2-17.4-14.2c-7.9,0-14.1,11.3-20.4,14.1
		c-4.9,2.2-24.5,2.6-34.6,3.1c-2.8,0.1-5.1,1.5-5.1,4.3V168c0-2.8,2.3-5.2,5.1-5.3c10.1-0.5,29.7-0.9,34.6-3.1
		c6.4-2.8,12.5-14.1,20.4-14.1c9.7,0,14,7.6,17.4,14.2c1.9,3.8,6.2,7.3,6.2,7.3V230.3z"/>
	<path style="fill:none;stroke-width:11;stroke-miterlimit:10;" d="M257.9,224c-3.3-6.6-7.6-14.2-17.4-14.2c-7.9,0-14.1,11.3-20.4,14.1c-4.9,2.2-24.5,2.6-34.6,3.1
		c-2.8,0.1-5.1,1.5-5.1,4.3v17.3v0.6c1.6-0.1,5.1-0.3,5.1-0.3s29.7-0.9,34.6-3.1c6.4-2.8,12.5-14.1,20.4-14.1
		c9.7,0,14,7.6,17.4,14.2c1.9,3.8,6.2,3.3,6.2,3.3v-17.9C264.2,231.3,259.9,227.9,257.9,224z"/>
	<path style="fill:none;stroke-width:11;stroke-miterlimit:10;" d="M173.8,224c-3.3-6.6-7.6-14.2-17.4-14.2c-7.9,0-14.1,11.3-20.4,14.1c-4.9,2.2-24.5,2.6-34.6,3.1
		c-2.8,0.1-5.1,1.5-5.1,4.3v17.9v0c0,0,2.3-0.2,5.1-0.3c10.1-0.5,29.7-0.9,34.6-3.1c6.4-2.8,12.5-14.1,20.4-14.1
		c9.7,0,14,7.6,17.4,14.2c1.9,3.8,6.2,3.3,6.2,3.3v-17.9C180,231.3,175.7,227.9,173.8,224z"/>
	<path style="fill:none;stroke-width:11;stroke-miterlimit:10;" d="M90.4,224c-3.3-6.6-7.6-14.2-17.4-14.2c-7.9,0-14.1,11.3-20.4,14.1c-4.9,2.2-24.5,2.6-34.6,3.1
		c-2.8,0.1-5.1,1.5-5.1,4.3v17.9v-0.9c0,1.4,2.3,0.7,5.1,0.6c10.1-0.5,29.7-0.9,34.6-3.1c6.4-2.8,12.5-14.1,20.4-14.1
		c9.7,0,14,7.6,17.4,14.2c1.9,3.8,6.2,3.3,6.2,3.3v-17.9C96.6,231.3,92.3,227.9,90.4,224z"/>
</g>
        </symbol>
    </defs>

    <defs>
        <symbol viewBox="0 -15 512 512" id="roof">
<g>
<path d="m76 481c24.507812 0 46.304688-11.816406 60-30.050781 13.695312 18.234375 35.492188 30.050781 60 30.050781s46.304688-11.816406 60-30.050781c13.695312 18.234375 35.492188 30.050781 60 30.050781s46.304688-11.816406 60-30.050781c13.695312 18.234375 35.492188 30.050781 60 30.050781 20.03125 0 39-7.757812 53.410156-21.847656 14.566406-14.238282 22.589844-33.113282 22.589844-53.152344 0-21.988281 0-392.429688 0-406h-512v406c0 20.039062 8.023438 38.914062 22.589844 53.152344 14.410156 14.089844 33.378906 21.847656 53.410156 21.847656zm0-30c-24.933594 0-46-20.605469-46-45v-60.484375c13.226562 10.03125 29.238281 15.484375 46 15.484375 16.871094 0 32.457031-5.601562 45-15.039062v60.039062c0 24.8125-20.1875 45-45 45zm285-285c0 24.8125-20.1875 45-45 45s-45-20.1875-45-45v-76h90zm-90 59.960938c12.542969 9.4375 28.128906 15.039062 45 15.039062s32.457031-5.601562 45-15.039062v60.039062c0 24.8125-20.1875 45-45 45s-45-20.1875-45-45zm-30-59.960938c0 24.8125-20.1875 45-45 45s-45-20.1875-45-45v-76h90zm-90 59.960938c12.542969 9.4375 28.128906 15.039062 45 15.039062s32.457031-5.601562 45-15.039062v60.039062c0 24.8125-20.1875 45-45 45s-45-20.1875-45-45zm45 225.039062c-24.8125 0-45-20.1875-45-45v-60.039062c12.542969 9.4375 28.128906 15.039062 45 15.039062s32.457031-5.601562 45-15.039062v60.039062c0 24.8125-20.1875 45-45 45zm120 0c-24.8125 0-45-20.1875-45-45v-60.039062c12.542969 9.4375 28.128906 15.039062 45 15.039062s32.457031-5.601562 45-15.039062v60.039062c0 24.8125-20.1875 45-45 45zm120 0c-24.8125 0-45-20.1875-45-45v-60.039062c12.542969 9.4375 28.128906 15.039062 45 15.039062 16.761719 0 32.773438-5.453125 46-15.484375v60.484375c0 24.394531-21.066406 45-46 45zm0-120c-24.8125 0-45-20.1875-45-45v-60.039062c12.542969 9.4375 28.128906 15.039062 45 15.039062 16.761719 0 32.773438-5.453125 46-15.484375v60.484375c0 24.394531-21.066406 45-46 45zm0-120c-24.8125 0-45-20.1875-45-45v-76h91v76c0 24.394531-21.066406 45-46 45zm-406-181h452v30c-4.292969 0-439.714844 0-452 0zm0 60h91v76c0 24.8125-20.1875 45-45 45-24.933594 0-46-20.605469-46-45zm0 135.515625c13.226562 10.03125 29.238281 15.484375 46 15.484375 16.871094 0 32.457031-5.601562 45-15.039062v60.039062c0 24.8125-20.1875 45-45 45-24.933594 0-46-20.605469-46-45zm0 0"/>
</g>
        </symbol>
    </defs>

</svg>