<?xml version="1.0" encoding="UTF-8"?>
<svg xmlns="http://www.w3.org/2000/svg">
    <defs>
        <symbol viewBox="0 0 512 512" id="helmet">
<g>
<path d="m482 355.382v-49.911c0-94.692-59.7-179.716-148.797-212.329-10.323-32.249-40.576-55.667-76.206-55.667h-1.995c-35.629 0-65.881 23.416-76.205 55.663-41.894 15.307-78.008 42.392-104.768 78.682-28.803 39.062-44.029 85.278-44.029 133.651v49.911c-17.124 3.686-30 18.938-30 37.147v.995c0 44.665 36.338 81.002 81.003 81.002h349.994c44.665 0 81.003-36.337 81.003-81.002v-.995c0-18.21-12.876-33.462-30-37.147zm-43.002-119.837c-.04 28.088-22.901 50.926-50.998 50.926-28.122 0-51-22.878-51-51v-108.367c47.465 21.671 83.773 61.072 101.998 108.441zm-183.995-168.071h1.995c27.571 0 50.002 22.431 50.002 50.002v117.995c0 44.664 36.336 81 81 81 25.453 0 48.188-11.812 63.048-30.229.63 6.346.951 12.761.951 19.229v49.056h-391.999v-49.056c0-6.477.321-12.895.942-19.24 14.86 18.424 37.6 30.24 63.058 30.24 44.664 0 81-36.336 81-81v-117.994c0-27.572 22.431-50.003 50.003-50.003zm-80.003 59.607v108.391c0 28.122-22.878 51-51 51s-51-22.878-51-51c0-.068-.009-.134-.01-.203 18.197-47.388 54.46-86.568 102.01-108.188zm307 266.442c0 28.123-22.88 51.002-51.003 51.002h-349.994c-28.123.001-51.003-22.879-51.003-51.002v-.995c0-4.413 3.59-8.002 8.002-8.002h435.995c4.413 0 8.002 3.59 8.002 8.002v.995z"/>
</g>
        </symbol>
    </defs>

    <defs>
        <symbol viewBox="0 0 512 512" id="dops">
<g>
	<g>
		<path d="M322.496,260.549c-27.646-35.847-54.917-61.828-56.063-62.916L256,187.735l-10.433,9.898
			c-1.148,1.088-28.416,27.069-56.062,62.916c-38.252,49.599-57.646,92.432-57.646,127.31C131.86,456.31,187.549,512,256.001,512
			s124.142-55.689,124.142-124.142C380.143,352.98,360.748,310.147,322.496,260.549z M255.999,481.685
			c-51.736,0-93.826-42.09-93.826-93.826c0-27.555,17.667-65.065,51.091-108.477c16.172-21.004,32.519-38.734,42.735-49.298
			c10.217,10.564,26.563,28.293,42.735,49.298c33.423,43.411,51.091,80.921,51.091,108.477
			C349.826,439.594,307.736,481.685,255.999,481.685z"/>
	</g>
</g>
<g>
	<g>
		<path d="M157.061,57.543c-20.922-27.128-41.59-46.82-42.46-47.644L104.168,0L93.736,9.898c-0.87,0.825-21.538,20.517-42.46,47.644
			C22.05,95.437,7.232,128.355,7.232,155.383c0,53.452,43.486,96.938,96.937,96.938c53.451-0.001,96.937-43.487,96.937-96.938
			C201.106,128.356,186.287,95.438,157.061,57.543z M104.168,222.005c-36.735,0-66.622-29.887-66.622-66.623
			c0-35.627,41.503-86.656,66.622-113.019c25.12,26.366,66.622,77.392,66.622,113.019
			C170.791,192.118,140.904,222.005,104.168,222.005z"/>
	</g>
</g>
<g>
	<g>
		<path d="M460.723,57.542c-20.922-27.128-41.589-46.82-42.459-47.644L407.831,0l-10.432,9.898
			c-0.869,0.825-21.537,20.517-42.459,47.644c-29.226,37.895-44.045,70.813-44.045,97.84c0,53.452,43.485,96.938,96.937,96.938
			s96.937-43.486,96.937-96.938C504.768,128.355,489.949,95.437,460.723,57.542z M407.831,222.005
			c-36.736,0-66.622-29.887-66.622-66.623c0-35.627,41.503-86.656,66.622-113.019c25.12,26.366,66.622,77.392,66.622,113.019
			C474.453,192.118,444.567,222.005,407.831,222.005z"/>
	</g>
</g>
        </symbol>
    </defs>


        <defs>
        <symbol viewBox="0 0 470.1 470.1" id="weight">
<g>
			<path class="st0" d="M199.7,238.2c-3.7-4.6-10.5-5.2-15-1.5s-5.2,10.5-1.5,15c0.4,0.5,0.9,1,1.4,1.4l42.7,43.1
				c4.5,3.8,11.2,3.4,15-1.1c3.5-3.9,3.5-9.9,0.1-14L199.7,238.2z"/>
			<path class="st0" d="M362.8,288.3c-0.3-69.3-56.1-125.8-125.1-127.3c-1.8-0.7-3.8-0.7-5.7,0c-69.1,1.5-124.8,57.9-125.1,127.3
				v0.1c0,0,0,0,0,0.1s0,0.2,0,0.3c0,70.7,57.3,128,128,128s128-57.3,128-128c0-0.1,0-0.2,0-0.3s0,0,0-0.1
				C362.9,288.3,362.8,288.3,362.8,288.3z M330.8,299H341c-2,20.9-10.2,40.9-23.6,57.1l-10.8-11.2c-4.2-4.3-10.9-4.3-15.1-0.2
				c-4.3,4.1-4.3,10.9-0.2,15.1l11.2,11.4c-16.2,13.3-36.1,21.5-56.9,23.7v-10.2c0-5.3-3.8-10.1-9.1-10.9c-6.6-1-12.3,4.2-12.3,10.6
				v10.6c-20.9-2.1-40.6-10.3-56.9-23.7l11-11.2c3.7-3.8,4.4-9.9,1.2-14.2c-4.1-5.3-11.6-5.7-16.1-1.1l-11,11.2
				c-13.3-16.3-21.5-36.2-23.6-57.1h11c3.3,0,6.5-1.7,8.1-4.6c4.7-8.3-1.2-16.7-9-16.7h-10c2.1-20.7,10.3-40.3,23.6-56.4l11,10.8
				c4.3,4.2,11,4.1,15.1-0.2s4.1-11-0.2-15.1L167.7,206c16.2-13.2,35.9-21.4,56.6-23.5v10.6c0,3.3,1.7,6.5,4.6,8.1
				c8.3,4.7,16.7-1.2,16.7-9v-9.7c20.8,2,40.5,10.2,56.6,23.5l-10.8,10.6c-4.3,4.2-4.3,10.9-0.2,15.1c4.1,4.3,10.9,4.3,15.1,0.2
				l11-10.8c13.2,16.1,21.4,35.7,23.6,56.5h-11c-3.3,0-6.5,1.7-8.1,4.6C317.2,290.6,323,299,330.8,299z"/>
			<path class="st0" d="M469.5,404.3l-31.6-247.1c-2.8-28.4-26.7-50-55.1-50.1h-41.2V75h94.1c9.9,0,22.4-6.9,27.4-15.6
				c17.2-29.1-3.4-59.1-31-59.1H34.2c-9.9,0-22.4,6.9-27.4,15.6C-10.4,45.1,10.2,75,37.8,75h90.5v32H87.1
				c-28.5,0-52.3,21.5-55.1,49.8L0.4,404.6c-1.8,16.9,3.1,32.5,13.8,44.4c11.8,13.1,30.1,20.7,50.1,20.7h352
				c17.2,0,31.1-5.5,40.6-16C467.4,442.1,471.7,425.1,469.5,404.3z M37.7,53.7c-8.9,0-16.1-7.1-16.2-16c0.1-8.9,7.4-16,16.2-16
				h394.2c8.9,0,16,7.1,16,16s-7.1,16-16,16H37.7z M320.3,75v32H149.6V75H320.3z M440.9,439.4c-5.3,6-13.7,9-24.7,9h-352
				c-14,0-26.5-5-34.3-13.7c-6.6-7.4-9.6-17.1-8.4-27.6l31.7-247.8c1.8-17.4,16.7-30.9,33.9-30.9h295.7c17.2,0,32.1,13.7,34,31.3
				l31.6,247.1C449.8,421.2,447.2,432.4,440.9,439.4z"/>
</g>
        </symbol>
    </defs>

        <defs>
        <symbol viewBox="0 0 512 512" id="panel">
	<g>
    		<path d="M510.373,490.237l-97.472-192.978c-2.552-5.051-7.729-8.237-13.388-8.237H112.485c-5.659,0-10.836,3.186-13.388,8.237
			L1.626,490.237C-3.402,500.193,3.841,512,15.013,512h481.972C508.14,512,515.409,500.21,510.373,490.237z M270.999,319.022
			h119.287l33.583,66.489h-152.87V319.022z M241,482H39.394l33.583-66.489H241V482z M241,385.511H88.13l33.583-66.489H241V385.511z
			 M270.998,482v-66.489h168.023L472.605,482H270.998z"/>
		<path d="M255.999,77.011c-30.326,0-54.997,24.673-54.997,55c0,30.327,24.672,55,54.997,55s54.997-24.673,54.997-55
			C310.996,101.684,286.325,77.011,255.999,77.011z M255.999,157.011c-13.784,0-24.999-11.215-24.999-25
			c0-13.785,11.215-25,24.999-25c13.784,0,24.999,11.215,24.999,25C280.998,145.796,269.784,157.011,255.999,157.011z"/>
            		<path d="M255.999,0C247.715,0,241,6.716,241,15v33.007c0,8.284,6.716,15,14.999,15c8.284,0,14.999-6.716,14.999-15V15
			C270.998,6.716,264.283,0,255.999,0z"/>
		<path d="M255.999,201.016c-8.284,0-14.999,6.715-14.999,15v33.007c0,8.284,6.715,15,14.999,15c8.284,0,14.999-6.716,14.999-15
			v-33.007C270.998,207.732,264.283,201.016,255.999,201.016z"/>
		<path d="M207.209,62.005l-23.337-23.339c-5.857-5.858-15.355-5.857-21.212,0c-5.858,5.858-5.858,15.355,0,21.213l23.337,23.339
			c5.856,5.858,15.353,5.858,21.212,0C213.067,77.36,213.067,67.863,207.209,62.005z"/>
		<path d="M349.339,204.144l-23.338-23.339c-5.856-5.858-15.354-5.857-21.211,0c-5.858,5.858-5.858,15.355,0,21.213l23.337,23.339
			c5.857,5.858,15.353,5.858,21.212,0C355.197,219.499,355.197,210.002,349.339,204.144z"/>
		<path d="M171.999,117.011h-33.005c-8.284,0-14.999,6.716-14.999,15s6.716,15,14.999,15h33.005c8.284,0,14.999-6.716,14.999-15
			S180.283,117.011,171.999,117.011z"/>
		<path d="M373.004,117.011h-33.005c-8.283,0-14.999,6.716-14.999,15s6.715,15,14.999,15h33.005c8.284,0,14.999-6.716,14.999-15
			S381.288,117.011,373.004,117.011z"/>
		<path d="M207.208,180.805c-5.857-5.858-15.354-5.858-21.211,0l-23.338,23.339c-5.858,5.858-5.858,15.355,0,21.213
			c5.857,5.857,15.354,5.858,21.212,0l23.337-23.339C213.066,196.16,213.066,186.663,207.208,180.805z"/>
		<path d="M349.34,38.666c-5.857-5.857-15.355-5.858-21.212,0L304.79,62.005c-5.858,5.858-5.858,15.355,0,21.213
			c5.857,5.857,15.355,5.858,21.212,0l23.338-23.339C355.198,54.021,355.198,44.524,349.34,38.666z"/>
	</g>
        </symbol>
    </defs>

</svg>



