<?xml version="1.0" encoding="utf-8"?>
<!-- Generator: Adobe Illustrator 24.0.1, SVG Export Plug-In . SVG Version: 6.00 Build 0)  -->
<svg version="1.1" id="Capa_1" xmlns="http://www.w3.org/2000/svg" xmlns:xlink="http://www.w3.org/1999/xlink" x="0px" y="0px"
	 viewBox="0 0 512 512" style="enable-background:new 0 0 512 512;" xml:space="preserve">
<style type="text/css">
	.st0{stroke:#000000;stroke-width:5;stroke-miterlimit:10;}
	.st1{stroke:#000000;stroke-width:2;stroke-miterlimit:10;}
</style>
<g>
	<g>
		<g>
			<path class="st0" d="M508.1,313.8l-62.2-115.5c10.4-9.2,18.7-20.6,24.1-33.4L495,173c2.9,1,6.1,0.3,8.4-1.7
				c2.3-2,3.3-5.2,2.6-8.1c-0.6-3-2.8-5.4-5.8-6.3l-24.8-8.1c3.2-13.6,3.2-27.8,0-41.5l24.8-8c2.9-0.9,5.1-3.3,5.8-6.3
				s-0.4-6.1-2.6-8.1c-2.3-2-5.5-2.7-8.4-1.7l-24.7,8c-5.6-12.8-13.9-24.3-24.5-33.5l15.4-21.1c1.8-2.5,2.1-5.7,0.9-8.5
				c-1.2-2.8-3.9-4.7-6.9-5s-6,1-7.8,3.5L432,47.5c-12-7.2-25.5-11.6-39.4-12.9v-26c0-4.7-3.8-8.5-8.5-8.5s-8.5,3.8-8.5,8.5v26
				c-13.9,1.3-27.4,5.7-39.4,12.9l-15.3-21.1c-2.8-3.8-8.1-4.7-11.9-1.9s-4.7,8.1-1.9,11.9l15.4,21.1c-10.5,9.2-18.9,20.7-24.5,33.5
				L273,83c-2.9-1-6.1-0.3-8.4,1.7s-3.3,5.2-2.6,8.2s2.9,5.4,5.8,6.3l24.8,8c-1.6,6.8-2.4,13.8-2.4,20.8H136.1
				c-7.7,0-14.9,3.4-19.8,9.3L3.9,313.8c-0.4,0.5-0.7,1-1,1.5c-1.8,1.6-2.8,3.9-2.9,6.3c0,0.3,0.1,0.6,0.2,0.9
				c-0.1,0.7-0.2,1.4-0.2,2.1v161.7C0,500.5,11.5,512,25.6,512h460.8c14.1,0,25.6-11.5,25.6-25.6V324.7
				C512,320.7,510.6,316.9,508.1,313.8z M384,51.2c31.9,0,60.4,19.6,71.8,49.4c11.4,29.8,3.1,63.4-20.7,84.6l-44.5-54.1
				c-0.1-0.1-0.2-0.1-0.3-0.2c-1.6-1.8-3.9-2.9-6.3-2.9h-76.8C307.2,85.6,341.6,51.2,384,51.2z M256,494.9H25.6
				c-4.7,0-8.5-3.8-8.5-8.5V330.1H256V494.9z M26.6,313.1l102.9-164.9c1.6-2,4-3.1,6.6-3.1h229.9l-105.4,168H26.6z M409.6,494.9
				h-51.2V384c0-4.7,3.8-8.5,8.5-8.5h34.1c4.7,0,8.5,3.8,8.5,8.5L409.6,494.9L409.6,494.9z M494.9,486.4c0,4.7-3.8,8.5-8.5,8.5
				h-59.7V384c0-14.1-11.5-25.6-25.6-25.6h-34.1c-14.1,0-25.6,11.5-25.6,25.6v110.9h-68.3V324.7L384,150l110.9,174.7L494.9,486.4
				L494.9,486.4z"/>
			<path class="st1" d="M317.9,178.3c-1.4-3.1-4.4-5-7.8-5L140,173.4c-2.4,0-4.8,1-6.4,2.9L108,216l-0.1,0.1l-34.4,53.7
				c-2.2,2.5-2.8,6.1-1.4,9.2c1.4,3.1,4.4,5,7.8,5h170.7c2.4,0,4.8-5,6.4-6.9l59.6-89.7C318.7,185,319.3,181.4,317.9,178.3z
				 M233.3,189.2h19.8L231,220.3h-19.8L233.3,189.2z M190.6,189.2h19.8l-22.2,31.1h-19.8L190.6,189.2z M147,189.2h19.8l-22.2,31.1
				h-19.8L147,189.2z M114.7,266.9H94.9l20.8-29.6h19.8L114.7,266.9z M157.4,266.9h-19.8l20.8-29.6h19.8L157.4,266.9z M200,266.9
				h-19.8l20.8-29.6h19.8L200,266.9z M242.7,266.9h-19.8l20.8-29.6h19.8L242.7,266.9z M272.6,220.3h-19.8l22.2-31.1h19.8
				L272.6,220.3z"/>
		</g>
	</g>
</g>
</svg>
