<?xml version="1.0" encoding="utf-8"?>
<!-- Generator: Adobe Illustrator 24.0.1, SVG Export Plug-In . SVG Version: 6.00 Build 0)  -->
<svg version="1.1" id="Capa_1" xmlns="http://www.w3.org/2000/svg" xmlns:xlink="http://www.w3.org/1999/xlink" x="0px" y="0px"
	 viewBox="0 0 277.1 277.1" style="enable-background:new 0 0 277.1 277.1;" xml:space="preserve">
<style type="text/css">
	.st0{fill:none;stroke:#050505;stroke-width:11;stroke-miterlimit:10;}
</style>
<g>
	<path class="st0" d="M50.6,203.4L50.6,203.4c9.8,0,18.5,7,21.1,15.9h0.1l0.6-165.7c0-11.4-9.9-21.3-21.3-21.3h0
		c-11.4,0-20,9.9-20,21.3l-0.6,165.7h0.3C33,210.3,40.8,203.4,50.6,203.4z"/>
</g>
<g>
	<path class="st0" d="M134.6,203.4L134.6,203.4c9.8,0,18.5,7,21.1,15.9h0.1l0.6-165.7c0-11.4-9.9-21.3-21.3-21.3h0
		c-11.4,0-20,9.9-20,21.3l-0.6,165.7h0.3C117,210.3,124.8,203.4,134.6,203.4z"/>
</g>
<g>
	<path class="st0" d="M218.6,203.4L218.6,203.4c9.8,0,18.5,7,21.1,15.9h0.1l0.6-165.7c0-11.4-9.9-21.3-21.3-21.3h0
		c-11.4,0-20,9.9-20,21.3l-0.6,165.7h0.3C201,210.3,208.8,203.4,218.6,203.4z"/>
</g>
<g>
	<path class="st0" d="M94.2,72.3L94.2,72.3c-9.8,0-18.5-7-21.1-15.9H73L72.4,222c0,11.4,9.9,21.3,21.3,21.3h0c11.4,0,20-9.9,20-21.3
		l0.6-165.7h-0.3C111.8,65.3,104,72.3,94.2,72.3z"/>
</g>
<g>
	<path class="st0" d="M178.2,72.3L178.2,72.3c-9.8,0-18.5-7-21.1-15.9H157L156.4,222c0,11.4,9.9,21.3,21.3,21.3h0
		c11.4,0,20-9.9,20-21.3l0.6-165.7h-0.3C195.8,65.3,188,72.3,178.2,72.3z"/>
</g>
</svg>
