<?xml version="1.0" encoding="utf-8"?>
<!-- Generator: Adobe Illustrator 24.0.1, SVG Export Plug-In . SVG Version: 6.00 Build 0)  -->
<svg version="1.1" id="Capa_1" xmlns="http://www.w3.org/2000/svg" xmlns:xlink="http://www.w3.org/1999/xlink" x="0px" y="0px"
	 viewBox="0 0 277.1 277.1" style="enable-background:new 0 0 277.1 277.1;" xml:space="preserve">
<g>
	<path d="M266.3,134.1L144.9,12.6c-3.5-3.5-9.2-3.5-12.7,0L91,53.8v-6.2c0-5-4-7-9-7H54.9c-5,0-9,4-9,9v49.3l-35.2,35.2
		c-3.5,3.5-4.5,8.2-1,11.7s8.2,0.5,11.7-3L138.6,25.7l116.1,117.1c1.8,1.8,4.6,3.2,6.9,3.5c2.2,0.2,3,1.2,4.7-0.5
		C269.8,142.2,269.9,137.6,266.3,134.1z M59.9,53.6l16.9,0V68L60.9,83.9V53.6H59.9z"/>
	<path d="M144.9,47.1c-3.5-3.5-9.2-3.5-12.7,0L32.1,147.2c-1.7,1.7-2.6,4-2.6,6.4v112.6c0,5,4,9,9,9h73.4c5,0,9-4,9-6v-56.8h35.5
		v56.8c0,2,4,6,9,6h73.4c5,0,9-4,9-9V153.5c0-2.4-0.9-4.7-2.6-6.4L144.9,47.1z M232.7,262.1h-60.4v-57.8c0-5-4-9-9-9h-49.5
		c-5,0-9,4-9,12v54.8H44.4V157.3l94.1-94.1l94.1,94.1V262.1z"/>
</g>
</svg>
