<?xml version="1.0" encoding="UTF-8"?>
<svg xmlns="http://www.w3.org/2000/svg">
    <defs>
        <symbol viewBox="0 0 20 20" id="phone">
<g>
<path d="M5.6,6.1C5.2,6.3,4.9,6.7,5,7.2l0,0c0.4,2.3,2.5,6.9,7.8,7.8c0.4,0.1,0.9-0.1,1.1-0.5L11,14 M19.2,12l-5-1
	c-0.4-0.1-0.9,0.1-1.1,0.5l0,0l-0.7,1.3c-3.6-0.9-4.9-3.9-5.3-5.3l1.3-0.6C8.9,6.7,9.1,6.2,9,5.8l0,0l-1-5C7.9,0.3,7.5,0,7,0H1
	C0.5,0,0,0.4,0,0.9v0c0,0.4-0.4,9,5.2,14.5c3,3,7.2,4.6,12.4,4.6c0.5,0,1,0,1.5,0c0.5,0,0.9-0.5,0.9-1v-6C20,12.5,19.7,12.1,19.2,12
	C19.2,12,19.2,12,19.2,12z"/>
</g>
        </symbol>
    </defs>
</svg>