<?xml version="1.0" encoding="utf-8"?>
<!-- Generator: Adobe Illustrator 24.0.1, SVG Export Plug-In . SVG Version: 6.00 Build 0)  -->
<svg version="1.1" id="Слой_1" xmlns="http://www.w3.org/2000/svg" xmlns:xlink="http://www.w3.org/1999/xlink" x="0px" y="0px"
	 viewBox="0 0 512 512" style="enable-background:new 0 0 512 512;" xml:space="preserve">
<path d="M508.8,284.1L417.1,103c-5-9.8-14.9-16-26-16H120.9c-11,0-21,6.1-26,16L3.2,284.1c-4.6,9.1-4.2,19.7,1.2,28.3
	c5.3,8.7,14.6,13.9,24.8,13.9h81.7V397h-29c-8.3,0-15,4.7-15,13s6.7,13,15,13h348.3c8.3,0,15-4.7,15-13s-6.7-13-15-13h-26.9v-70.7
	h79.6c10.2,0,19.5-5.2,24.8-13.9C513,303.8,513.4,293.2,508.8,284.1z M431.4,193.6H270.1V114h123.5L431.4,193.6z M118.4,114h125.6
	v79.6H80.6L118.4,114z M65.4,219.6h178.6v79.6H27.6L65.4,219.6z M376.3,397H137.9v-70.7h238.4V397z M270.1,299.3v-79.6h176.5
	l37.8,79.6H270.1z"/>
</svg>
