<?xml version="1.0" encoding="utf-8"?>
<!-- Generator: Adobe Illustrator 24.0.1, SVG Export Plug-In . SVG Version: 6.00 Build 0)  -->
<svg version="1.1" id="Capa_1" xmlns="http://www.w3.org/2000/svg" xmlns:xlink="http://www.w3.org/1999/xlink" x="0px" y="0px"
	 viewBox="0 0 277.1 277.1" style="enable-background:new 0 0 277.1 277.1;" xml:space="preserve">
<style type="text/css">
	.st0{fill:none;stroke:#050505;stroke-width:11;stroke-linejoin:round;stroke-miterlimit:10;}
</style>
<g>
	<path class="st0" d="M96.6,105.7c0,0-4.3-3.4-6.2-7.3c-3.3-6.6-7.6-14.2-17.4-14.2c-7.9,0-14.1,11.3-20.4,14.1
		c-4.9,2.2-24.5,2.6-34.6,3.1c-2.8,0.1-5.1,1.5-5.1,4.3V43.4c0-2.8,2.3-5.2,5.1-5.3c10.1-0.5,29.7-0.9,34.6-3.1
		C59,32.2,65.1,21,73,21c9.7,0,14,7.6,17.4,14.2c1.9,3.8,6.2,7.3,6.2,7.3V105.7z"/>
</g>
<g>
	<path class="st0" d="M180.4,105.7c0,0-4.3-3.4-6.2-7.3c-3.3-6.6-7.6-14.2-17.4-14.2c-7.9,0-14.1,11.3-20.4,14.1
		c-4.9,2.2-24.5,2.6-34.6,3.1c-2.8,0.1-5.1,1.5-5.1,4.3V43.4c0-2.8,2.3-5.2,5.1-5.3c10.1-0.5,29.7-0.9,34.6-3.1
		c6.4-2.8,12.5-14.1,20.4-14.1c9.7,0,14,7.6,17.4,14.2c1.9,3.8,6.2,7.3,6.2,7.3V105.7z"/>
</g>
<g>
	<path class="st0" d="M264.2,105.7c0,0-4.3-3.4-6.2-7.3c-3.3-6.6-7.6-14.2-17.4-14.2c-7.9,0-14.1,11.3-20.4,14.1
		c-4.9,2.2-24.5,2.6-34.6,3.1c-2.8,0.1-5.1,1.5-5.1,4.3V43.4c0-2.8,2.3-5.2,5.1-5.3c10.1-0.5,29.7-0.9,34.6-3.1
		c6.4-2.8,12.5-14.1,20.4-14.1c9.7,0,14,7.6,17.4,14.2c1.9,3.8,6.2,7.3,6.2,7.3V105.7z"/>
</g>
<g>
	<path class="st0" d="M96.6,168.5c0,0-4.3-3.4-6.2-7.3c-3.3-6.6-7.6-14.2-17.4-14.2c-7.9,0-14.1,11.3-20.4,14.1
		c-4.9,2.2-24.5,2.6-34.6,3.1c-2.8,0.1-5.1,1.5-5.1,4.3v-62.3c0-2.8,2.3-5.2,5.1-5.3c10.1-0.5,29.7-0.9,34.6-3.1
		C59,95,65.1,83.8,73,83.8c9.7,0,14,7.6,17.4,14.2c1.9,3.8,6.2,7.3,6.2,7.3V168.5z"/>
</g>
<g>
	<path class="st0" d="M180.4,168.5c0,0-4.3-3.4-6.2-7.3c-3.3-6.6-7.6-14.2-17.4-14.2c-7.9,0-14.1,11.3-20.4,14.1
		c-4.9,2.2-24.5,2.6-34.6,3.1c-2.8,0.1-5.1,1.5-5.1,4.3v-62.3c0-2.8,2.3-5.2,5.1-5.3c10.1-0.5,29.7-0.9,34.6-3.1
		c6.4-2.8,12.5-14.1,20.4-14.1c9.7,0,14,7.6,17.4,14.2c1.9,3.8,6.2,7.3,6.2,7.3V168.5z"/>
</g>
<g>
	<path class="st0" d="M264.2,168.5c0,0-4.3-3.4-6.2-7.3c-3.3-6.6-7.6-14.2-17.4-14.2c-7.9,0-14.1,11.3-20.4,14.1
		c-4.9,2.2-24.5,2.6-34.6,3.1c-2.8,0.1-5.1,1.5-5.1,4.3v-62.3c0-2.8,2.3-5.2,5.1-5.3c10.1-0.5,29.7-0.9,34.6-3.1
		c6.4-2.8,12.5-14.1,20.4-14.1c9.7,0,14,7.6,17.4,14.2c1.9,3.8,6.2,7.3,6.2,7.3V168.5z"/>
</g>
<g>
	<path class="st0" d="M96.6,230.3c0,0-4.3-3.4-6.2-7.3c-3.3-6.6-7.6-14.2-17.4-14.2c-7.9,0-14.1,11.3-20.4,14.1
		c-4.9,2.2-24.5,2.6-34.6,3.1c-2.8,0.1-5.1,1.5-5.1,4.3V168c0-2.8,2.3-5.2,5.1-5.3c10.1-0.5,29.7-0.9,34.6-3.1
		c6.4-2.8,12.5-14.1,20.4-14.1c9.7,0,14,7.6,17.4,14.2c1.9,3.8,6.2,7.3,6.2,7.3V230.3z"/>
</g>
<g>
	<path class="st0" d="M180.4,230.3c0,0-4.3-3.4-6.2-7.3c-3.3-6.6-7.6-14.2-17.4-14.2c-7.9,0-14.1,11.3-20.4,14.1
		c-4.9,2.2-24.5,2.6-34.6,3.1c-2.8,0.1-5.1,1.5-5.1,4.3V168c0-2.8,2.3-5.2,5.1-5.3c10.1-0.5,29.7-0.9,34.6-3.1
		c6.4-2.8,12.5-14.1,20.4-14.1c9.7,0,14,7.6,17.4,14.2c1.9,3.8,6.2,7.3,6.2,7.3V230.3z"/>
</g>
<g>
	<path class="st0" d="M264.2,230.3c0,0-4.3-3.4-6.2-7.3c-3.3-6.6-7.6-14.2-17.4-14.2c-7.9,0-14.1,11.3-20.4,14.1
		c-4.9,2.2-24.5,2.6-34.6,3.1c-2.8,0.1-5.1,1.5-5.1,4.3V168c0-2.8,2.3-5.2,5.1-5.3c10.1-0.5,29.7-0.9,34.6-3.1
		c6.4-2.8,12.5-14.1,20.4-14.1c9.7,0,14,7.6,17.4,14.2c1.9,3.8,6.2,7.3,6.2,7.3V230.3z"/>
</g>
<g>
	<path class="st0" d="M257.9,224c-3.3-6.6-7.6-14.2-17.4-14.2c-7.9,0-14.1,11.3-20.4,14.1c-4.9,2.2-24.5,2.6-34.6,3.1
		c-2.8,0.1-5.1,1.5-5.1,4.3v17.3v0.6c1.6-0.1,5.1-0.3,5.1-0.3s29.7-0.9,34.6-3.1c6.4-2.8,12.5-14.1,20.4-14.1
		c9.7,0,14,7.6,17.4,14.2c1.9,3.8,6.2,3.3,6.2,3.3v-17.9C264.2,231.3,259.9,227.9,257.9,224z"/>
</g>
<g>
	<path class="st0" d="M173.8,224c-3.3-6.6-7.6-14.2-17.4-14.2c-7.9,0-14.1,11.3-20.4,14.1c-4.9,2.2-24.5,2.6-34.6,3.1
		c-2.8,0.1-5.1,1.5-5.1,4.3v17.9v0c0,0,2.3-0.2,5.1-0.3c10.1-0.5,29.7-0.9,34.6-3.1c6.4-2.8,12.5-14.1,20.4-14.1
		c9.7,0,14,7.6,17.4,14.2c1.9,3.8,6.2,3.3,6.2,3.3v-17.9C180,231.3,175.7,227.9,173.8,224z"/>
</g>
<g>
	<path class="st0" d="M90.4,224c-3.3-6.6-7.6-14.2-17.4-14.2c-7.9,0-14.1,11.3-20.4,14.1c-4.9,2.2-24.5,2.6-34.6,3.1
		c-2.8,0.1-5.1,1.5-5.1,4.3v17.9v-0.9c0,1.4,2.3,0.7,5.1,0.6c10.1-0.5,29.7-0.9,34.6-3.1c6.4-2.8,12.5-14.1,20.4-14.1
		c9.7,0,14,7.6,17.4,14.2c1.9,3.8,6.2,3.3,6.2,3.3v-17.9C96.6,231.3,92.3,227.9,90.4,224z"/>
</g>
</svg>
