<?xml version="1.0" encoding="utf-8"?>
<!-- Generator: Adobe Illustrator 24.0.1, SVG Export Plug-In . SVG Version: 6.00 Build 0)  -->
<svg version="1.1" id="Layer_1" xmlns="http://www.w3.org/2000/svg" xmlns:xlink="http://www.w3.org/1999/xlink" x="0px" y="0px"
	 viewBox="0 0 470.1 470.1" style="enable-background:new 0 0 470.1 470.1;" xml:space="preserve">
<style type="text/css">
	.st0{stroke:#000000;stroke-width:5;stroke-miterlimit:10;}
</style>
<g>
	<g>
		<g>
			<path class="st0" d="M199.7,238.2c-3.7-4.6-10.5-5.2-15-1.5s-5.2,10.5-1.5,15c0.4,0.5,0.9,1,1.4,1.4l42.7,43.1
				c4.5,3.8,11.2,3.4,15-1.1c3.5-3.9,3.5-9.9,0.1-14L199.7,238.2z"/>
			<path class="st0" d="M362.8,288.3c-0.3-69.3-56.1-125.8-125.1-127.3c-1.8-0.7-3.8-0.7-5.7,0c-69.1,1.5-124.8,57.9-125.1,127.3
				v0.1c0,0,0,0,0,0.1s0,0.2,0,0.3c0,70.7,57.3,128,128,128s128-57.3,128-128c0-0.1,0-0.2,0-0.3s0,0,0-0.1
				C362.9,288.3,362.8,288.3,362.8,288.3z M330.8,299H341c-2,20.9-10.2,40.9-23.6,57.1l-10.8-11.2c-4.2-4.3-10.9-4.3-15.1-0.2
				c-4.3,4.1-4.3,10.9-0.2,15.1l11.2,11.4c-16.2,13.3-36.1,21.5-56.9,23.7v-10.2c0-5.3-3.8-10.1-9.1-10.9c-6.6-1-12.3,4.2-12.3,10.6
				v10.6c-20.9-2.1-40.6-10.3-56.9-23.7l11-11.2c3.7-3.8,4.4-9.9,1.2-14.2c-4.1-5.3-11.6-5.7-16.1-1.1l-11,11.2
				c-13.3-16.3-21.5-36.2-23.6-57.1h11c3.3,0,6.5-1.7,8.1-4.6c4.7-8.3-1.2-16.7-9-16.7h-10c2.1-20.7,10.3-40.3,23.6-56.4l11,10.8
				c4.3,4.2,11,4.1,15.1-0.2s4.1-11-0.2-15.1L167.7,206c16.2-13.2,35.9-21.4,56.6-23.5v10.6c0,3.3,1.7,6.5,4.6,8.1
				c8.3,4.7,16.7-1.2,16.7-9v-9.7c20.8,2,40.5,10.2,56.6,23.5l-10.8,10.6c-4.3,4.2-4.3,10.9-0.2,15.1c4.1,4.3,10.9,4.3,15.1,0.2
				l11-10.8c13.2,16.1,21.4,35.7,23.6,56.5h-11c-3.3,0-6.5,1.7-8.1,4.6C317.2,290.6,323,299,330.8,299z"/>
			<path class="st0" d="M469.5,404.3l-31.6-247.1c-2.8-28.4-26.7-50-55.1-50.1h-41.2V75h94.1c9.9,0,22.4-6.9,27.4-15.6
				c17.2-29.1-3.4-59.1-31-59.1H34.2c-9.9,0-22.4,6.9-27.4,15.6C-10.4,45.1,10.2,75,37.8,75h90.5v32H87.1
				c-28.5,0-52.3,21.5-55.1,49.8L0.4,404.6c-1.8,16.9,3.1,32.5,13.8,44.4c11.8,13.1,30.1,20.7,50.1,20.7h352
				c17.2,0,31.1-5.5,40.6-16C467.4,442.1,471.7,425.1,469.5,404.3z M37.7,53.7c-8.9,0-16.1-7.1-16.2-16c0.1-8.9,7.4-16,16.2-16
				h394.2c8.9,0,16,7.1,16,16s-7.1,16-16,16H37.7z M320.3,75v32H149.6V75H320.3z M440.9,439.4c-5.3,6-13.7,9-24.7,9h-352
				c-14,0-26.5-5-34.3-13.7c-6.6-7.4-9.6-17.1-8.4-27.6l31.7-247.8c1.8-17.4,16.7-30.9,33.9-30.9h295.7c17.2,0,32.1,13.7,34,31.3
				l31.6,247.1C449.8,421.2,447.2,432.4,440.9,439.4z"/>
		</g>
	</g>
</g>
</svg>
